<svg width="281" height="280" viewBox="0 0 281 280" fill="none" xmlns="http://www.w3.org/2000/svg">
<path d="M194.059 86.441C189.136 81.5199 182.461 78.7554 175.5 78.7554C168.539 78.7554 161.864 81.5199 156.941 86.441L152.872 90.501L165.245 102.874L169.314 98.8135C170.964 97.2196 173.174 96.3377 175.468 96.3576C177.763 96.3775 179.957 97.2978 181.58 98.9201C183.202 100.542 184.122 102.737 184.142 105.031C184.162 107.325 183.28 109.536 181.686 111.186L152.872 140L165.245 152.372L194.059 123.559C198.98 118.636 201.744 111.96 201.744 105C201.744 98.0392 198.98 91.3636 194.059 86.441ZM111.686 181.186C110.036 182.78 107.826 183.662 105.531 183.642C103.237 183.622 101.043 182.702 99.4203 181.079C97.798 179.457 96.8778 177.262 96.8578 174.968C96.8379 172.674 97.7199 170.464 99.3137 168.813L128.127 140L115.755 127.627L86.9412 156.441C84.4341 158.862 82.4343 161.759 81.0586 164.962C79.6828 168.164 78.9587 171.609 78.9284 175.094C78.8981 178.58 79.5623 182.036 80.8822 185.262C82.2021 188.488 84.1512 191.419 86.6159 193.884C89.0806 196.349 92.0114 198.298 95.2374 199.618C98.4635 200.937 101.92 201.602 105.406 201.571C108.891 201.541 112.335 200.817 115.538 199.441C118.741 198.065 121.637 196.066 124.059 193.558L128.127 189.498L115.755 177.126L111.686 181.186ZM124.059 86.4498C119.088 81.784 112.497 79.2352 105.68 79.3427C98.8633 79.4501 92.3558 82.2055 87.5345 87.0257C82.7132 91.8458 79.9563 98.3527 79.8472 105.169C79.7381 111.986 82.2854 118.578 86.95 123.55L91.01 127.618L103.382 115.246L99.3225 111.177C97.7286 109.527 96.8467 107.317 96.8666 105.022C96.8865 102.728 97.8068 100.534 99.4291 98.9113C101.051 97.289 103.246 96.3688 105.54 96.3489C107.834 96.3289 110.045 97.2109 111.695 98.8048L140.5 127.627L152.872 115.255L124.059 86.4498Z" fill="#222E46"/>
<path d="M194.059 156.441L189.999 152.373L177.626 164.745L181.686 168.814C183.28 170.464 184.162 172.674 184.142 174.969C184.122 177.263 183.202 179.457 181.58 181.08C179.957 182.702 177.763 183.622 175.468 183.642C173.174 183.662 170.964 182.78 169.314 181.186L140.5 152.373L128.128 164.745L156.941 193.559C161.892 198.34 168.523 200.986 175.406 200.927C182.288 200.867 188.872 198.106 193.739 193.239C198.606 188.372 201.367 181.788 201.426 174.906C201.486 168.023 198.84 161.392 194.059 156.441Z" fill="#222E46"/>
<path d="M140.5 271.25C138.951 271.251 137.429 270.841 136.09 270.06L31.09 208.81C29.7689 208.039 28.673 206.935 27.9115 205.609C27.15 204.282 26.7495 202.779 26.75 201.25V78.7499C26.7495 77.2204 27.15 75.7175 27.9115 74.391C28.673 73.0645 29.7689 71.9608 31.09 71.1899L136.09 9.93991C137.428 9.15887 138.95 8.74731 140.5 8.74731C142.05 8.74731 143.572 9.15887 144.91 9.93991L249.91 71.1899L241.09 86.3099L140.5 27.6324L44.25 83.7724V196.227L140.5 252.376L236.75 196.227V131.25H254.25V201.25C254.25 202.779 253.85 204.282 253.088 205.609C252.327 206.935 251.231 208.039 249.91 208.81L144.91 270.06C143.571 270.841 142.049 271.251 140.5 271.25Z" fill="#222E46"/>
</svg>
