<svg width="1045" height="948" viewBox="0 0 1045 948" fill="none" xmlns="http://www.w3.org/2000/svg">
<path d="M94.4455 315.624C75.099 331.453 106.757 470.396 106.757 470.396C106.757 470.396 113.792 682.328 128.741 692.001C143.691 701.674 177.108 691.121 190.298 689.363C203.489 687.604 192.057 556.576 172.711 508.21C153.364 459.843 168.314 389.493 168.314 389.493L272.96 409.718C272.96 409.718 209.645 463.361 212.283 474.793C214.921 486.225 282.634 524.918 294.945 526.676C307.256 528.435 331 456.326 352.105 407.08C373.21 357.835 207.886 326.177 207.886 326.177L185.022 283.087C185.022 283.087 113.792 299.795 94.4455 315.624Z" fill="#2F2E41"/>
<path d="M146.967 695.65C146.967 695.65 140.585 717.984 146.967 717.984C153.348 717.984 165.047 724.366 183.127 722.239C201.208 720.112 195.89 697.777 183.127 694.586C170.365 691.396 173.556 665.87 173.556 665.87C169.301 657.362 149.094 667.997 149.094 667.997L146.967 695.65Z" fill="#2F2E41"/>
<path d="M237.563 518.044C237.563 518.044 226.615 538.531 232.853 539.876C239.091 541.222 249.181 549.927 267.303 551.661C285.425 553.394 284.937 530.44 273.135 524.63C261.332 518.82 269.834 494.541 269.834 494.541C267.469 485.327 245.474 491.462 245.474 491.462L237.563 518.044Z" fill="#2F2E41"/>
<path d="M106.317 125.238C108.076 128.755 100.161 172.724 100.161 172.724L107.196 185.036C107.196 185.036 147.648 169.207 141.492 166.569C135.337 163.931 136.216 131.393 136.216 131.393C136.216 131.393 104.558 121.72 106.317 125.238Z" fill="#FFB9B9"/>
<path d="M121.543 138.791C151.321 138.791 175.461 114.651 175.461 84.8726C175.461 55.0944 151.321 30.9543 121.543 30.9543C91.7643 30.9543 67.6243 55.0944 67.6243 84.8726C67.6243 114.651 91.7643 138.791 121.543 138.791Z" fill="#2F2E41"/>
<path d="M117.824 56.7072C130.146 56.7072 140.135 46.7183 140.135 34.3962C140.135 22.0742 130.146 12.0852 117.824 12.0852C105.502 12.0852 95.5131 22.0742 95.5131 34.3962C95.5131 46.7183 105.502 56.7072 117.824 56.7072Z" fill="#2F2E41"/>
<path d="M127.585 44.5015C128.357 44.5817 129.133 44.622 129.909 44.6222C132.839 44.6222 135.74 44.0451 138.447 42.9238C141.154 41.8026 143.614 40.1592 145.685 38.0874C147.757 36.0156 149.401 33.5561 150.522 30.8492C151.643 28.1422 152.22 25.241 152.22 22.3111C152.22 19.3811 151.643 16.4799 150.522 13.773C149.401 11.0661 147.757 8.60654 145.685 6.53476C143.614 4.46299 141.154 2.81957 138.447 1.69833C135.74 0.577092 132.839 -8.73188e-08 129.909 0C129.133 0.000199637 128.357 0.0404609 127.585 0.120627C133.07 0.695301 138.148 3.28098 141.839 7.37878C145.53 11.4766 147.572 16.7961 147.572 22.3111C147.572 27.826 145.53 33.1456 141.839 37.2434C138.148 41.3412 133.07 43.9269 127.585 44.5015Z" fill="#2F2E41"/>
<path d="M123.025 148.102C143.424 148.102 159.96 131.566 159.96 111.167C159.96 90.7693 143.424 74.2333 123.025 74.2333C102.627 74.2333 86.0913 90.7693 86.0913 111.167C86.0913 131.566 102.627 148.102 123.025 148.102Z" fill="#FFB9B9"/>
<path d="M69.8225 167.888C58.3905 170.526 39.0441 198.666 39.0441 198.666L69.8225 229.445C69.8225 229.445 91.8071 312.107 94.4453 315.624C111.729 338.669 189.419 287.484 189.419 287.484C189.419 287.484 186.341 262.422 188.1 250.11C189.791 238.269 181.504 214.495 181.504 214.495C181.504 214.495 210.524 202.184 204.368 189.872C198.213 177.561 160.399 149.421 144.57 159.094C128.741 168.767 97.0836 159.094 97.0836 159.094C97.0836 159.094 81.2546 165.25 69.8225 167.888Z" fill="#E6E6E6"/>
<path d="M294.505 345.084C294.505 345.084 344.63 388.174 356.942 379.38C369.253 370.586 309.455 339.807 309.455 339.807L294.505 345.084Z" fill="#FFB9B9"/>
<path d="M69.383 330.134C76.4181 338.049 109.835 317.823 105.551 308.841C101.266 299.858 74.6593 317.823 74.6593 317.823C74.6593 317.823 62.3479 322.22 69.383 330.134Z" fill="#FFB9B9"/>
<path d="M69.8226 210.978L32.8885 279.569C32.8885 279.569 75.0989 314.745 80.3752 315.624C85.6515 316.504 69.8226 339.368 69.8226 339.368C69.8226 339.368 22.3358 305.951 3.86879 289.243C-14.5983 272.534 39.0442 198.666 39.0442 198.666L54.8731 188.993L69.8226 210.978Z" fill="#E6E6E6"/>
<path d="M177.107 208.339L220.197 275.173C220.197 275.173 286.151 349.041 294.945 352.558C303.739 356.076 314.291 339.368 314.291 339.368L235.147 243.515L205.248 189.872L193.816 185.475L177.107 208.339Z" fill="#E6E6E6"/>
<path d="M121.543 89.5959C142.079 89.5959 158.728 79.6069 158.728 67.2849C158.728 54.9628 142.079 44.9738 121.543 44.9738C101.006 44.9738 84.3575 54.9628 84.3575 67.2849C84.3575 79.6069 101.006 89.5959 121.543 89.5959Z" fill="#2F2E41"/>
<path d="M225.859 548.671C224.64 548.672 223.472 549.157 222.61 550.019C221.749 550.881 221.264 552.049 221.262 553.268V710.051C221.264 711.27 221.749 712.438 222.61 713.3C223.472 714.162 224.64 714.647 225.859 714.648H760.464C761.683 714.647 762.851 714.162 763.713 713.3C764.575 712.438 765.059 711.27 765.061 710.051V553.268C765.059 552.049 764.575 550.881 763.713 550.019C762.851 549.157 761.683 548.672 760.464 548.671L225.859 548.671Z" fill="#E6E6E6"/>
<path d="M232.782 703.129H753.541V560.19H232.782V703.129Z" fill="white"/>
<path d="M687.809 673.476C686.808 673.474 685.817 673.671 684.892 674.053C683.967 674.435 683.127 674.995 682.419 675.703C681.71 676.41 681.149 677.25 680.766 678.174C680.382 679.098 680.185 680.089 680.185 681.09C680.185 682.091 680.382 683.082 680.766 684.006C681.149 684.931 681.71 685.77 682.419 686.478C683.127 687.185 683.967 687.745 684.892 688.128C685.817 688.51 686.808 688.706 687.809 688.705H718.266C720.286 688.705 722.223 687.902 723.651 686.474C725.079 685.046 725.881 683.11 725.881 681.09C725.881 679.071 725.079 677.134 723.651 675.706C722.223 674.278 720.286 673.476 718.266 673.476H687.809Z" fill="#3AA391"/>
<path d="M725.881 658.706H374.281V660.709H725.881V658.706Z" fill="#E6E6E6"/>
<path d="M300.785 676.01C325.279 676.01 345.136 656.154 345.136 631.66C345.136 607.165 325.279 587.309 300.785 587.309C276.291 587.309 256.435 607.165 256.435 631.66C256.435 656.154 276.291 676.01 300.785 676.01Z" fill="#3AA391"/>
<path d="M374.836 647.519L373.726 645.852L410.262 621.494L435.316 633.52L471.353 610.496L543.04 641.076L600.127 613.033L655.562 635.507L725.217 573.812L726.545 575.312L655.96 637.831L600.206 615.226L543.098 643.279L471.54 612.754L435.455 635.81L410.424 623.795L374.836 647.519Z" fill="#3F3D56"/>
<path d="M380.792 674.523C379.936 674.522 379.089 674.689 378.298 675.016C377.507 675.343 376.788 675.822 376.183 676.427C375.577 677.032 375.097 677.75 374.769 678.54C374.441 679.331 374.273 680.178 374.273 681.034C374.273 681.89 374.441 682.737 374.769 683.528C375.097 684.318 375.577 685.036 376.183 685.641C376.788 686.246 377.507 686.725 378.298 687.052C379.089 687.379 379.936 687.546 380.792 687.545H448.908C450.634 687.543 452.288 686.856 453.507 685.635C454.726 684.414 455.411 682.76 455.411 681.034C455.411 679.309 454.726 677.654 453.507 676.433C452.288 675.212 450.634 674.525 448.908 674.523H380.792Z" fill="#E6E6E6"/>
<path d="M317.724 611.818H324.654L310.234 626.089C307.715 628.572 304.321 629.964 300.784 629.964C297.247 629.964 293.852 628.572 291.333 626.089L276.915 611.818H283.845L294.799 622.659C296.394 624.232 298.544 625.113 300.785 625.113C303.025 625.113 305.175 624.232 306.77 622.659L317.724 611.818ZM283.757 651.501H276.827L291.335 637.142C293.854 634.659 297.249 633.267 300.786 633.267C304.323 633.267 307.717 634.659 310.236 637.142L324.744 651.501H317.814L306.77 640.572C305.175 638.999 303.025 638.117 300.785 638.117C298.544 638.117 296.394 638.999 294.799 640.572L283.757 651.501Z" fill="white"/>
<path d="M295.474 46.4785C294.255 46.48 293.087 46.9647 292.225 47.8265C291.363 48.6883 290.878 49.8567 290.877 51.0754V207.859C290.878 209.078 291.363 210.246 292.225 211.108C293.087 211.97 294.255 212.454 295.474 212.456H830.079C831.297 212.454 832.466 211.97 833.327 211.108C834.189 210.246 834.674 209.078 834.675 207.859V51.0754C834.674 49.8566 834.189 48.6883 833.327 47.8265C832.466 46.9647 831.297 46.4799 830.079 46.4785L295.474 46.4785Z" fill="#E6E6E6"/>
<path d="M302.396 200.936H823.156V57.9981H302.396V200.936Z" fill="white"/>
<path d="M757.423 171.283C755.404 171.283 753.467 172.085 752.039 173.513C750.611 174.941 749.809 176.878 749.809 178.898C749.809 180.917 750.611 182.854 752.039 184.282C753.467 185.71 755.404 186.512 757.423 186.512H787.881C789.9 186.512 791.837 185.71 793.265 184.282C794.693 182.854 795.495 180.917 795.495 178.898C795.495 176.878 794.693 174.941 793.265 173.513C791.837 172.085 789.9 171.283 787.881 171.283H757.423Z" fill="#3AA391"/>
<path d="M795.495 156.513H443.896V158.517H795.495V156.513Z" fill="#E6E6E6"/>
<path d="M370.4 173.818C394.894 173.818 414.751 153.961 414.751 129.467C414.751 104.973 394.894 85.1168 370.4 85.1168C345.906 85.1168 326.05 104.973 326.05 129.467C326.05 153.961 345.906 173.818 370.4 173.818Z" fill="#3AA391"/>
<path d="M444.451 145.326L443.34 143.659L479.876 119.301L504.93 131.328L540.968 108.304L541.454 108.511L612.654 138.884L669.742 110.841L725.176 133.314L794.831 71.6192L796.16 73.119L725.575 135.637L669.82 113.034L612.713 141.087L541.155 110.562L505.07 133.617L480.038 121.601L444.451 145.326Z" fill="#3F3D56"/>
<path d="M450.407 172.331C448.681 172.333 447.027 173.02 445.808 174.241C444.589 175.461 443.904 177.116 443.904 178.842C443.904 180.567 444.589 182.222 445.808 183.443C447.027 184.664 448.681 185.351 450.407 185.353H518.523C520.25 185.353 521.906 184.667 523.127 183.446C524.348 182.225 525.034 180.569 525.034 178.842C525.034 177.115 524.348 175.459 523.127 174.238C521.906 173.017 520.25 172.331 518.523 172.331H450.407Z" fill="#E6E6E6"/>
<path d="M388.245 124.291C389.074 118.741 384.848 115.757 379.07 113.767L380.944 106.249L376.367 105.108L374.542 112.428C373.34 112.128 372.104 111.846 370.877 111.565L372.715 104.197L368.141 103.057L366.265 110.572C365.269 110.345 364.292 110.121 363.343 109.885L363.348 109.862L357.037 108.286L355.82 113.174C355.82 113.174 359.215 113.952 359.143 114C359.777 114.076 360.355 114.397 360.754 114.895C361.152 115.393 361.34 116.027 361.276 116.662L359.141 125.226C359.302 125.267 359.461 125.318 359.616 125.379L359.134 125.259L356.14 137.257C356.074 137.466 355.968 137.661 355.827 137.829C355.686 137.997 355.513 138.136 355.318 138.237C355.123 138.338 354.91 138.399 354.691 138.418C354.472 138.436 354.252 138.411 354.043 138.344C354.089 138.411 350.717 137.514 350.717 137.514L348.445 142.754L354.401 144.238C355.509 144.516 356.595 144.806 357.663 145.08L355.769 152.686L360.34 153.826L362.217 146.303C363.464 146.642 364.676 146.954 365.862 147.249L363.993 154.737L368.57 155.878L370.463 148.288C378.267 149.765 384.136 149.169 386.604 142.112C388.594 136.429 386.506 133.151 382.4 131.012C385.39 130.32 387.643 128.353 388.243 124.291L388.245 124.291ZM377.787 138.953C376.372 144.636 366.805 141.565 363.701 140.793L366.214 130.719C369.316 131.493 379.263 133.026 377.789 138.953H377.787ZM379.202 124.209C377.911 129.378 369.947 126.751 367.363 126.108L369.641 116.971C372.226 117.615 380.547 118.816 379.202 124.209Z" fill="white"/>
<path d="M505.798 297.575C504.58 297.576 503.411 298.061 502.55 298.923C501.688 299.784 501.203 300.953 501.202 302.172V458.955C501.203 460.174 501.688 461.342 502.55 462.204C503.411 463.066 504.58 463.551 505.798 463.552H1040.4C1041.62 463.551 1042.79 463.066 1043.65 462.204C1044.51 461.342 1045 460.174 1045 458.955V302.172C1045 300.953 1044.51 299.784 1043.65 298.923C1042.79 298.061 1041.62 297.576 1040.4 297.575L505.798 297.575Z" fill="#E6E6E6"/>
<path d="M512.721 452.033H1033.48V309.094H512.721V452.033Z" fill="white"/>
<path d="M967.748 422.379C965.728 422.379 963.792 423.182 962.364 424.61C960.936 426.038 960.133 427.974 960.133 429.994C960.133 432.013 960.936 433.95 962.364 435.378C963.792 436.806 965.728 437.608 967.748 437.608H998.206C1000.23 437.608 1002.16 436.806 1003.59 435.378C1005.02 433.95 1005.82 432.013 1005.82 429.994C1005.82 427.974 1005.02 426.038 1003.59 424.61C1002.16 423.182 1000.23 422.379 998.206 422.379H967.748Z" fill="#3AA391"/>
<path d="M1005.82 407.61H654.22V409.613H1005.82V407.61Z" fill="#E6E6E6"/>
<path d="M580.725 424.914C605.219 424.914 625.075 405.057 625.075 380.563C625.075 356.069 605.219 336.213 580.725 336.213C556.231 336.213 536.374 356.069 536.374 380.563C536.374 405.057 556.231 424.914 580.725 424.914Z" fill="#3AA391"/>
<path d="M654.776 396.422L653.664 394.755L690.2 370.398L715.255 382.424L751.292 359.401L751.779 359.608L822.978 389.98L880.067 361.937L935.501 384.41L1005.16 322.716L1006.48 324.217L935.9 386.734L880.145 364.131L823.037 392.183L751.48 361.659L715.394 384.713L690.363 372.699L654.776 396.422Z" fill="#3F3D56"/>
<path d="M660.731 423.427C659.004 423.427 657.348 424.113 656.127 425.334C654.906 426.555 654.22 428.211 654.22 429.938C654.22 431.665 654.906 433.321 656.127 434.542C657.348 435.763 659.004 436.449 660.731 436.449H728.848C730.574 436.449 732.231 435.763 733.452 434.542C734.673 433.321 735.359 431.665 735.359 429.938C735.359 428.211 734.673 426.555 733.452 425.334C732.231 424.113 730.574 423.427 728.848 423.427H660.731Z" fill="#E6E6E6"/>
<path d="M580.72 409.793L598.674 384.509L580.72 395.109L562.777 384.509L580.719 409.793H580.72Z" fill="white"/>
<path d="M580.719 391.712H580.72L598.663 381.106L580.72 351.334H580.719L562.777 381.106L580.719 391.712Z" fill="white"/>
<path d="M23.0312 878.354C19.9132 877.232 16.4761 878.851 15.3543 881.969C14.2325 885.087 15.8507 888.524 18.9688 889.646L23.0312 878.354ZM981 655L916.991 681.512L971.956 723.689L981 655ZM18.9688 889.646C121.418 926.505 287.722 959.769 461.886 943.8C636.127 927.824 818.725 862.502 952.76 701.65L943.541 693.969C812.115 851.69 632.885 916.071 460.79 931.85C288.618 947.636 124.078 914.709 23.0312 878.354L18.9688 889.646Z" fill="#3AA391"/>
</svg>
