<svg width="271" height="270" viewBox="0 0 271 270" fill="none" xmlns="http://www.w3.org/2000/svg">
<path d="M135.5 101.25C135.5 83.3479 128.388 66.179 115.73 53.5203C103.071 40.8616 85.9021 33.75 68 33.75H34.25V56.25C34.25 74.1521 41.3616 91.321 54.0203 103.98C66.679 116.638 83.8479 123.75 101.75 123.75H135.5M135.5 123.75C135.5 105.848 142.612 88.679 155.27 76.0203C167.929 63.3616 185.098 56.25 203 56.25H236.75V67.5C236.75 85.4021 229.638 102.571 216.98 115.23C204.321 127.888 187.152 135 169.25 135H135.5M135.5 168.75V101.25M79.25 168.75H191.75V213.75C191.75 219.717 189.379 225.44 185.16 229.66C180.94 233.879 175.217 236.25 169.25 236.25H101.75C95.7826 236.25 90.0597 233.879 85.8401 229.66C81.6205 225.44 79.25 219.717 79.25 213.75V168.75Z" stroke="#222E46" stroke-width="14" stroke-linecap="round" stroke-linejoin="round"/>
</svg>
