<svg width="80" height="80" viewBox="0 0 80 80" fill="none" xmlns="http://www.w3.org/2000/svg">
<path d="M71.848 21.2361C71.9997 21.6015 72.0396 22.0036 71.9627 22.3916C71.8858 22.7797 71.6955 23.1362 71.416 23.4161L63.416 31.4161C63.2299 31.6017 63.0091 31.7488 62.7661 31.849C62.5232 31.9493 62.2628 32.0006 62 32.0001H50.828L45.416 37.4121C46.0261 38.6893 46.165 40.141 45.8082 41.5107C45.4513 42.8804 44.6218 44.0799 43.4662 44.8971C42.3105 45.7143 40.9032 46.0966 39.4929 45.9766C38.0826 45.8565 36.7601 45.2417 35.7593 44.2408C34.7584 43.24 34.1436 41.9176 34.0236 40.5073C33.9035 39.097 34.2858 37.6896 35.103 36.534C35.9202 35.3783 37.1197 34.5488 38.4894 34.192C39.8591 33.8352 41.3108 33.9741 42.588 34.5841L48 29.1721V18.0001C47.9995 17.7373 48.0509 17.477 48.1511 17.234C48.2513 16.991 48.3984 16.7702 48.584 16.5841L56.584 8.58412C56.8637 8.30369 57.2204 8.11264 57.6088 8.03517C57.9973 7.9577 58.4 7.99732 58.7659 8.14899C59.1317 8.30066 59.4444 8.55755 59.6641 8.88711C59.8838 9.21667 60.0007 9.60404 60 10.0001V20.0001H70C70.3958 20.0002 70.7826 20.1177 71.1116 20.3377C71.4405 20.5577 71.6968 20.8704 71.848 21.2361ZM65.172 24.0001H58C57.4696 24.0001 56.9609 23.7894 56.5858 23.4143C56.2107 23.0393 56 22.5306 56 22.0001V14.8281L52 18.8281V28.0001H61.172L65.172 24.0001ZM70.428 30.0601C71.448 33.1881 72 36.5321 72 40.0001C71.9985 46.7599 69.8565 53.3455 65.881 58.8127C61.9055 64.2798 56.3008 68.3477 49.8707 70.4328C43.4406 72.5179 36.5153 72.5132 30.088 70.4193C23.6607 68.3255 18.0616 64.2501 14.0935 58.7776C10.1255 53.305 7.99232 46.7165 8.00002 39.9567C8.00772 33.197 10.1558 26.6133 14.1364 21.1498C18.1169 15.6863 23.7253 11.6237 30.1573 9.54449C36.5894 7.4653 43.5146 7.47638 49.94 9.57612L46.708 12.8081C40.7704 11.3441 34.5167 11.8643 28.9025 14.2891C23.2883 16.714 18.6224 20.9102 15.6177 26.2366C12.6129 31.563 11.4346 37.7266 12.2628 43.7858C13.091 49.8449 15.8801 55.4663 20.204 59.791C24.5278 64.1157 30.1487 66.9059 36.2076 67.7353C42.2666 68.5646 48.4305 67.3875 53.7575 64.3838C59.0844 61.3801 63.2816 56.715 65.7075 51.1013C68.1335 45.4876 68.6549 39.234 67.192 33.2961L70.428 30.0601ZM59.6 36.0001C60.4591 40.2124 59.938 44.5893 58.1141 48.4822C56.2901 52.3751 53.2604 55.5766 49.4739 57.6123C45.6875 59.648 41.3459 60.4094 37.0927 59.7838C32.8395 59.1581 28.9011 57.1787 25.8613 54.1389C22.8214 51.099 20.842 47.1606 20.2163 42.9074C19.5907 38.6542 20.3521 34.3126 22.3878 30.5262C24.4235 26.7397 27.625 23.71 31.5179 21.8861C35.4108 20.0621 39.7877 19.5411 44 20.4001V24.5041C40.6019 23.6275 37.0098 23.8924 33.777 25.258C30.5443 26.6236 27.8502 29.0142 26.1097 32.0616C24.3692 35.109 23.6788 38.644 24.145 42.1223C24.6112 45.6006 26.208 48.8291 28.6895 51.3106C31.171 53.7921 34.3996 55.3889 37.8778 55.8551C41.3561 56.3213 44.8912 55.631 47.9385 53.8905C50.9859 52.15 53.3765 49.4558 54.7421 46.2231C56.1077 42.9903 56.3726 39.3982 55.496 36.0001H59.6Z" fill="#3AA391"/>
</svg>
