<svg width="271" height="270" viewBox="0 0 271 270" fill="none" xmlns="http://www.w3.org/2000/svg">
<path d="M244.625 82.125C240.125 77.625 233.375 77.625 228.875 82.125L158 153L109.625 104.625C107.375 102.375 105.125 101.25 101.75 101.25C98.375 101.25 96.125 102.375 93.875 104.625L26.375 172.125C24.125 174.375 23 176.625 23 180C23 186.75 27.5 191.25 34.25 191.25C37.625 191.25 39.875 190.125 42.125 187.875L101.75 128.25L150.125 176.625C151.25 177.75 152.375 178.875 153.5 178.875C154.625 180 156.875 180 158 180C160.25 180 163.625 178.875 164.75 176.625H165.875L244.625 97.875C249.125 93.375 249.125 86.625 244.625 82.125Z" fill="#222E46"/>
</svg>
